# xmcd CD database file
#
# Track frame offsets:
#	150
#	25145
#	46271
#	61065
#	80495
#	103291
#	133083
#	150685
#	171543
#	186766
#	209298
#	229278
#	247007
#	263547
#
# Disc length: 3791 seconds
#
# Revision: 0
# Processed by: cddbd v1.5.2PL0 Copyright (c) Steve Scherf et al.
# Submitted via: CDex 2.06
#
DISCID=c20ecd0e
DTITLE=Keegan McInroe - Uncouth Pilgrims
DYEAR=2016
DGENRE=Country
TTITLE0=Country Music Outlaws
TTITLE1=Tonight
TTITLE2=Lumberjack Blues
TTITLE3=Gice Me the Rain
TTITLE4=Begona
TTITLE5=Woody and Ruth
TTITLE6=Resolutions
TTITLE7=I Got Trouble
TTITLE8=Flower Song BarefootDancer
TTITLE9=Verona
TTITLE10=Nikolina
TTITLE11=Coffee and Whitey
TTITLE12=Uncouth Pilgrim
TTITLE13=Lay Down
EXTD=YEAR: 2016
EXTT0=
EXTT1=
EXTT2=
EXTT3=
EXTT4=
EXTT5=
EXTT6=
EXTT7=
EXTT8=
EXTT9=
EXTT10=
EXTT11=
EXTT12=
EXTT13=
PLAYORDER=
